<?xml version="1.0" encoding="UTF-8"?>
<svg width="400px" height="225px" viewBox="0 0 400 225" version="1.1" xmlns="http://www.w3.org/2000/svg" xmlns:xlink="http://www.w3.org/1999/xlink">
    <!-- Generator: Sketch 63.1 (92452) - https://sketch.com -->
    <title>bStable英文</title>
    <desc>Created with Sketch.</desc>
    <defs>
        <linearGradient x1="50%" y1="0%" x2="50%" y2="100%" id="linearGradient-1">
            <stop stop-color="#FF565A" offset="0%"></stop>
            <stop stop-color="#FF7477" offset="46.2194204%"></stop>
            <stop stop-color="#FF4950" offset="100%"></stop>
        </linearGradient>
        <rect id="path-2" x="0" y="0.791638558" width="401" height="225" rx="8"></rect>
        <linearGradient x1="65.6803809%" y1="50%" x2="0%" y2="50%" id="linearGradient-4">
            <stop stop-color="#E8353C" offset="0%"></stop>
            <stop stop-color="#FF666D" offset="100%"></stop>
        </linearGradient>
        <linearGradient x1="65.6803809%" y1="50%" x2="0%" y2="50%" id="linearGradient-5">
            <stop stop-color="#8D021F" offset="0%"></stop>
            <stop stop-color="#D70037" offset="100%"></stop>
        </linearGradient>
        <linearGradient x1="100%" y1="50%" x2="0%" y2="50%" id="linearGradient-6">
            <stop stop-color="#D80037" offset="0%"></stop>
            <stop stop-color="#E1152C" offset="100%"></stop>
        </linearGradient>
        <linearGradient x1="100%" y1="50%" x2="0%" y2="50%" id="linearGradient-7">
            <stop stop-color="#D90037" offset="0%"></stop>
            <stop stop-color="#F27C26" offset="100%"></stop>
        </linearGradient>
        <linearGradient x1="60.7920133%" y1="50%" x2="0%" y2="50%" id="linearGradient-8">
            <stop stop-color="#FF5173" offset="0%"></stop>
            <stop stop-color="#FFAC70" offset="100%"></stop>
        </linearGradient>
        <linearGradient x1="60.7920133%" y1="50%" x2="0%" y2="50%" id="linearGradient-9">
            <stop stop-color="#FF5173" offset="0%"></stop>
            <stop stop-color="#FFAC70" offset="100%"></stop>
        </linearGradient>
        <linearGradient x1="100%" y1="50%" x2="0%" y2="50%" id="linearGradient-10">
            <stop stop-color="#FBE053" offset="0%"></stop>
            <stop stop-color="#FFF5B0" offset="100%"></stop>
        </linearGradient>
        <rect id="path-11" x="91.2692308" y="150.822544" width="226" height="43.6410256" rx="21.8205128"></rect>
        <filter x="-0.4%" y="-2.3%" width="100.9%" height="104.6%" filterUnits="objectBoundingBox" id="filter-12">
            <feGaussianBlur stdDeviation="0.5" in="SourceAlpha" result="shadowBlurInner1"></feGaussianBlur>
            <feOffset dx="0" dy="-1" in="shadowBlurInner1" result="shadowOffsetInner1"></feOffset>
            <feComposite in="shadowOffsetInner1" in2="SourceAlpha" operator="arithmetic" k2="-1" k3="1" result="shadowInnerInner1"></feComposite>
            <feColorMatrix values="0 0 0 0 1   0 0 0 0 0.973295224   0 0 0 0 0.799714177  0 0 0 1 0" type="matrix" in="shadowInnerInner1"></feColorMatrix>
        </filter>
    </defs>
    <g id="bStable英文" stroke="none" stroke-width="1" fill="none" fill-rule="evenodd">
        <g id="回馈" transform="translate(-1.000000, -1.000000)">
            <g id="矩形">
                <mask id="mask-3" fill="white">
                    <use xlink:href="#path-2"></use>
                </mask>
                <use id="Mask" fill="url(#linearGradient-1)" xlink:href="#path-2"></use>
                <path d="M283.090379,7.5192477 L398.603687,7.5192477 C406.12253,7.5192477 412.217756,13.6144738 412.217756,21.1333161 C412.217756,28.6521585 406.12253,34.7473846 398.603687,34.7473846 L283.090379,34.7473846 C275.571537,34.7473846 269.476311,28.6521585 269.476311,21.1333161 C269.476311,13.6144738 275.571537,7.5192477 283.090379,7.5192477 Z" fill="url(#linearGradient-4)" mask="url(#mask-3)" transform="translate(340.847033, 21.133316) rotate(-43.000000) translate(-340.847033, -21.133316) "></path>
                <path d="M-42.2584773,66.1506627 L73.2548307,66.1506627 C80.7736731,66.1506627 86.8688991,72.2458888 86.8688991,79.7647311 C86.8688991,87.2835735 80.7736731,93.3787996 73.2548307,93.3787996 L-42.2584773,93.3787996 C-49.7773197,93.3787996 -55.8725457,87.2835735 -55.8725457,79.7647311 C-55.8725457,72.2458888 -49.7773197,66.1506627 -42.2584773,66.1506627 Z" id="矩形-copy-8" fill="url(#linearGradient-5)" opacity="0.25" mask="url(#mask-3)" transform="translate(15.498177, 79.764731) rotate(-43.000000) translate(-15.498177, -79.764731) "></path>
                <path d="M341.701671,163.481103 L457.214979,163.481103 C464.733822,163.481103 470.829048,169.576329 470.829048,177.095172 C470.829048,184.614014 464.733822,190.70924 457.214979,190.70924 L341.701671,190.70924 C334.182829,190.70924 328.087603,184.614014 328.087603,177.095172 C328.087603,169.576329 334.182829,163.481103 341.701671,163.481103 Z" id="矩形-copy-2" fill="url(#linearGradient-4)" mask="url(#mask-3)" transform="translate(399.458325, 177.095172) rotate(-43.000000) translate(-399.458325, -177.095172) "></path>
                <path d="M329.700946,95.6731793 L358.579273,95.6731793 C361.541241,95.6731793 363.942391,98.0743289 363.942391,101.036297 C363.942391,103.998265 361.541241,106.399415 358.579273,106.399415 L329.700946,106.399415 C326.738978,106.399415 324.337828,103.998265 324.337828,101.036297 C324.337828,98.0743289 326.738978,95.6731793 329.700946,95.6731793 Z" id="矩形-copy-3" fill="url(#linearGradient-6)" mask="url(#mask-3)" transform="translate(344.140109, 101.036297) rotate(-43.000000) translate(-344.140109, -101.036297) "></path>
                <path d="M28.5717082,133.894882 L78.9025067,133.894882 C79.8138816,133.894882 80.5526968,134.633697 80.5526968,135.545072 C80.5526968,136.456447 79.8138816,137.195262 78.9025067,137.195262 L28.5717082,137.195262 C27.6603334,137.195262 26.9215181,136.456447 26.9215181,135.545072 C26.9215181,134.633697 27.6603334,133.894882 28.5717082,133.894882 Z" id="矩形-copy-4" fill="url(#linearGradient-7)" mask="url(#mask-3)" transform="translate(53.737107, 135.545072) rotate(-43.000000) translate(-53.737107, -135.545072) "></path>
                <path d="M54.8652514,19.2413173 L107.671335,19.2413173 C107.899179,19.2413173 108.083883,19.4260211 108.083883,19.6538648 C108.083883,19.8817085 107.899179,20.0664123 107.671335,20.0664123 L54.8652514,20.0664123 C54.6374077,20.0664123 54.4527039,19.8817085 54.4527039,19.6538648 C54.4527039,19.4260211 54.6374077,19.2413173 54.8652514,19.2413173 Z" id="矩形-copy-5" fill="url(#linearGradient-8)" mask="url(#mask-3)" transform="translate(81.268293, 19.653865) scale(1, -1) rotate(43.000000) translate(-81.268293, -19.653865) "></path>
                <path d="M338.862619,55.7629099 L391.668703,55.7629099 C391.896546,55.7629099 392.08125,55.9476137 392.08125,56.1754575 C392.08125,56.4033012 391.896546,56.588005 391.668703,56.588005 L338.862619,56.588005 C338.634775,56.588005 338.450071,56.4033012 338.450071,56.1754575 C338.450071,55.9476137 338.634775,55.7629099 338.862619,55.7629099 Z" id="矩形-copy-7" fill="url(#linearGradient-8)" mask="url(#mask-3)" transform="translate(365.265661, 56.175457) scale(1, -1) rotate(43.000000) translate(-365.265661, -56.175457) "></path>
                <path d="M28.6553959,37.6016372 L65.7846734,37.6016372 C66.0125171,37.6016372 66.1972209,37.786341 66.1972209,38.0141847 C66.1972209,38.2420284 66.0125171,38.4267322 65.7846734,38.4267322 L28.6553959,38.4267322 C28.4275521,38.4267322 28.2428483,38.2420284 28.2428483,38.0141847 C28.2428483,37.786341 28.4275521,37.6016372 28.6553959,37.6016372 Z" id="矩形-copy-6" fill="url(#linearGradient-9)" mask="url(#mask-3)" transform="translate(47.220035, 38.014185) scale(1, -1) rotate(43.000000) translate(-47.220035, -38.014185) "></path>
                <path d="M-30.2746396,207.202017 L85.2386684,207.202017 C92.7575108,207.202017 98.8527368,213.297243 98.8527368,220.816085 C98.8527368,228.334928 92.7575108,234.430154 85.2386684,234.430154 L-30.2746396,234.430154 C-37.793482,234.430154 -43.888708,228.334928 -43.888708,220.816085 C-43.888708,213.297243 -37.793482,207.202017 -30.2746396,207.202017 Z" id="矩形-copy" fill="url(#linearGradient-4)" mask="url(#mask-3)" transform="translate(27.482014, 220.816085) rotate(-43.000000) translate(-27.482014, -220.816085) "></path>
            </g>
            <circle id="椭圆形" fill="#FFE7C6" cx="49.5615436" cy="53.6483836" r="1"></circle>
            <circle id="椭圆形-copy-4" fill="#FFE7C6" opacity="0.400000006" cx="70.18892" cy="85.8270908" r="1"></circle>
            <circle id="椭圆形-copy" fill="#FFCF7B" cx="61.9379694" cy="51.9981935" r="1"></circle>
            <circle id="椭圆形-copy-3" fill="#FFCF7B" cx="45.4360683" cy="72.6255699" r="1"></circle>
            <circle id="椭圆形-copy-2" fill="#FFCF7B" opacity="0.300000012" cx="80.9151558" cy="42.9221479" r="1"></circle>
            <circle id="椭圆形-copy-9" fill="#FFE7C6" transform="translate(351.973384, 26.446768) scale(-1, 1) translate(-351.973384, -26.446768) " cx="351.973384" cy="26.4467681" r="1"></circle>
            <circle id="椭圆形-copy-10" fill="#FFE7C6" transform="translate(357.749049, 11.595057) scale(-1, 1) translate(-357.749049, -11.595057) " cx="357.749049" cy="11.595057" r="1"></circle>
            <circle id="椭圆形-copy-8" fill="#FFE7C6" opacity="0.400000006" transform="translate(331.346008, 58.625475) scale(-1, 1) translate(-331.346008, -58.625475) " cx="331.346008" cy="58.6254753" r="1"></circle>
            <circle id="椭圆形-copy-7" fill="#FFCF7B" transform="translate(339.596958, 24.796578) scale(-1, 1) translate(-339.596958, -24.796578) " cx="339.596958" cy="24.7965779" r="1"></circle>
            <circle id="椭圆形-copy-6" fill="#FFCF7B" transform="translate(356.098859, 45.423954) scale(-1, 1) translate(-356.098859, -45.423954) " cx="356.098859" cy="45.4239544" r="1"></circle>
            <circle id="椭圆形-copy-5" fill="#FFCF7B" opacity="0.300000012" transform="translate(320.619772, 15.720532) scale(-1, 1) translate(-320.619772, -15.720532) " cx="320.619772" cy="15.7205323" r="1"></circle>
        </g>
        <polygon id="路径-149" fill="#EB6A00" points="301 157.489679 304 154.476289 301 154.476289"></polygon>
        <polygon id="路径-149复制" fill="#EB6A00" transform="translate(101.534221, 129.866932) scale(-1, 1) translate(-101.534221, -129.866932) " points="100.034221 131.373627 103.034221 128.360237 100.034221 128.360237"></polygon>
        <path d="M292.5,115.30221 C292.5,111.696336 289.589851,108.773197 286,108.773197 C289.589851,108.773197 292.5,105.850059 292.5,102.244184 C292.5,105.850059 295.410149,108.773197 299,108.773197 C295.410149,108.773197 292.5,111.696336 292.5,115.30221 Z" id="路径复制-7" fill="#FFE3A8"></path>
        <path d="M100.534221,102.244184 C100.534221,98.6383099 97.6240714,95.7151712 94.0342205,95.7151712 C97.6240714,95.7151712 100.534221,92.7920325 100.534221,89.1861581 C100.534221,92.7920325 103.44437,95.7151712 107.034221,95.7151712 C103.44437,95.7151712 100.534221,98.6383099 100.534221,102.244184 Z" id="路径复制-9" fill="#FFC32E"></path>
        <path d="M317.269231,202.276295 C317.269231,200.057296 315.254512,198.258441 312.769231,198.258441 C315.254512,198.258441 317.269231,196.459587 317.269231,194.240587 C317.269231,196.459587 319.283949,198.258441 321.769231,198.258441 C319.283949,198.258441 317.269231,200.057296 317.269231,202.276295 Z" id="路径复制-10" fill="#FFC32E"></path>
        <path d="M335.5,182.46471 C335.5,179.13621 333.037566,176.437928 330,176.437928 C333.037566,176.437928 335.5,173.739646 335.5,170.411147 C335.5,173.739646 337.962434,176.437928 341,176.437928 C337.962434,176.437928 335.5,179.13621 335.5,182.46471 Z" id="路径复制-11" fill="#FFC32E"></path>
        <path d="M299.5,118.315601 C299.5,116.928726 298.380712,115.804442 297,115.804442 C298.380712,115.804442 299.5,114.680158 299.5,113.293283 C299.5,114.680158 300.619288,115.804442 302,115.804442 C300.619288,115.804442 299.5,116.928726 299.5,118.315601 Z" id="路径复制-8" fill="#FFA719"></path>
        <path d="M82.3842205,158.795482 L84.1842205,158.795482 C84.9298049,158.795482 85.5342205,159.335138 85.5342205,160.000838 C85.5342205,160.666538 84.9298049,161.206195 84.1842205,161.206195 L82.3842205,161.206195 L82.3842205,162.813336 C82.3842205,163.479036 81.7798049,164.018692 81.0342205,164.018692 C80.2886361,164.018692 79.6842205,163.479036 79.6842205,162.813336 L79.6842205,161.206195 L77.8842205,161.206195 C77.1386361,161.206195 76.5342205,160.666538 76.5342205,160.000838 C76.5342205,159.335138 77.1386361,158.795482 77.8842205,158.795482 L79.6842205,158.795482 L79.6842205,157.18834 C79.6842205,156.52264 80.2886361,155.982984 81.0342205,155.982984 C81.7798049,155.982984 82.3842205,156.52264 82.3842205,157.18834 L82.3842205,158.795482 Z" id="路径" fill="#FFB01B"></path>
        <ellipse id="椭圆形" stroke="#FFB01B" stroke-width="2" opacity="0.5" cx="82.5342205" cy="135.893713" rx="3.5" ry="3.51562242"></ellipse>
        <ellipse id="椭圆形复制" stroke="#FFB01B" stroke-width="2" opacity="0.5" cx="310.5" cy="132.880322" rx="1.5" ry="1.50669532"></ellipse>
        <path d="M82.9842205,179.638101 L83.5842205,179.638101 C83.8327487,179.638101 84.0342205,179.840472 84.0342205,180.090109 C84.0342205,180.339747 83.8327487,180.542118 83.5842205,180.542118 L82.9842205,180.542118 L82.9842205,181.144796 C82.9842205,181.394433 82.7827487,181.596805 82.5342205,181.596805 C82.2856924,181.596805 82.0842205,181.394433 82.0842205,181.144796 L82.0842205,180.542118 L81.4842205,180.542118 C81.2356924,180.542118 81.0342205,180.339747 81.0342205,180.090109 C81.0342205,179.840472 81.2356924,179.638101 81.4842205,179.638101 L82.0842205,179.638101 L82.0842205,179.035422 C82.0842205,178.785785 82.2856924,178.583414 82.5342205,178.583414 C82.7827487,178.583414 82.9842205,178.785785 82.9842205,179.035422 L82.9842205,179.638101 Z" id="路径复制-15" fill="#FFB01B" opacity="0.400000006"></path>
        <g id="资源-1" transform="translate(145.679565, 13.844614)" fill="#FFFEE6" fill-rule="nonzero">
            <path d="M56.4572723,0 C57.5234926,0.305162658 58.6118838,0.551717918 59.6599643,0.925592697 C63.8401929,2.42311276 66.8594708,5.21201652 68.8165595,9.21146619 C71.475835,14.6166906 70.862604,21.0642797 67.2323456,25.8680928 C65.0938583,28.6590176 62.3950512,30.7062346 58.978712,31.7288326 C53.7383097,33.3011277 48.9352795,32.3634093 44.5998544,29.1016045 C41.1734375,26.5168161 39.1075097,23.0226026 38.3799,18.7947862 C37.7752382,15.2803633 38.3799,11.9053855 40.0245801,8.73654417 C41.7216642,5.45655084 44.2269796,2.99099824 47.576806,1.48943628 C48.9735747,0.86294341 50.5235245,0.582032089 52.0109925,0.139445188 C52.0714587,0.121256685 52.1158006,0.0485026741 52.1682046,0 L56.4572723,0 Z" id="路径"></path>
            <g id="编组" transform="translate(0.201554, 70.439694)">
                <path d="M108.276789,15.4195244 C107.987544,15.4913186 107.693003,15.5398117 107.395998,15.564537 C103.534225,15.5752787 99.6724511,15.5752787 95.8106778,15.564537 L94.9863222,15.564537 C94.8915918,17.7095149 96.6713131,20.1847992 99.0758515,20.7708917 C101.625509,21.3932374 104.362611,19.8242818 104.826185,18.2392136 L107.226693,18.883714 C106.218923,20.8655527 104.622616,22.0478081 102.54661,22.611746 C100.063466,23.2864573 97.6952071,22.9742774 95.5547043,21.5362359 C93.7266101,20.3096711 92.6482966,18.5151404 92.1988313,16.3802328 C91.6951645,14.1675402 92.1331106,11.8452078 93.4081549,9.96745397 C95.0367107,7.51835249 97.358612,6.34213928 100.295253,6.37637837 C103.687405,6.41061745 106.077835,8.02186842 107.49879,11.0510202 C107.86965,11.8405332 108.020815,12.7347775 108.272757,13.5786702 L108.276789,15.4195244 Z M105.640463,13.5565155 C105.541705,10.8242787 103.414887,8.59694955 100.688283,8.37030144 C97.6972226,8.08631846 94.9581046,10.4850683 94.8774831,13.5565155 L105.640463,13.5565155 Z" id="形状"></path>
                <path d="M0,0 L2.66252746,0 L2.66252746,9.5065424 C3.22687847,8.89466454 3.65215727,8.40924143 4.10766916,7.95237263 C6.31266919,5.74145395 10.0776967,5.64967227 12.4963439,7.444514 C16.0457086,10.0817076 16.9184372,16.3677328 13.9072214,20.114465 C11.8050139,22.7312626 8.4652652,23.6286835 5.52862439,22.4273633 C4.92967943,22.1665607 4.37261301,21.8166453 3.87588214,21.3892105 C3.37199731,20.9812919 2.96485836,20.434681 2.4287249,19.8595158 L2.4287249,22.6007287 L0,22.6007287 L0,0 Z M2.70283825,14.7013855 C2.70283825,15.109304 2.73307134,15.5314998 2.70283825,15.9434975 C2.57585927,17.3569354 3.10594611,18.391009 4.20643059,19.3006674 C7.04430997,21.6156053 10.6158457,20.6508779 12.2141684,17.7179433 C13.3005441,15.7273007 13.3086062,13.6591535 12.3552561,11.6440357 C11.5490404,9.95525283 10.2208,8.83551634 8.34030176,8.51937945 C5.97002751,8.11146087 2.1727514,10.8118818 2.69679163,13.6958662 C2.72600756,14.0303873 2.72600756,14.3668643 2.69679163,14.7013855 L2.70283825,14.7013855 Z" id="形状"></path>
                <path d="M65.2127752,4.14104306e-13 L67.8833648,4.14104306e-13 L67.8833648,9.49345559 C68.4477158,8.88215774 68.8729946,8.4012701 69.3285065,7.94483437 C71.535522,5.73804914 75.2924874,5.64839212 77.709119,7.44153248 C81.2524372,10.0721509 82.1312123,16.3522174 79.1199966,20.0994733 C77.017789,22.7117527 73.6397451,23.6755657 70.7514772,22.3796142 C69.5985887,21.8620487 68.6553163,20.8717462 67.6394845,20.1137369 L67.6394845,22.5833802 L65.2208373,22.5833802 L65.2127752,4.14104306e-13 Z M67.9236756,14.7037509 C67.9236756,15.0909062 67.9539086,15.4821368 67.9236756,15.8652168 C67.7886344,17.3038044 68.2985659,18.377651 69.4353301,19.2945978 C72.2570851,21.5686258 75.7802479,20.6557543 77.4047726,17.7582025 C78.5314591,15.7511079 78.5415368,13.6584316 77.5740779,11.6228098 C76.7678622,9.94174068 75.4335751,8.82102795 73.5429992,8.51130371 C71.1807871,8.12211075 67.3855266,10.8057083 67.9176289,13.6991848 C67.9499433,14.033153 67.9519673,14.3694098 67.9236756,14.7037509 L67.9236756,14.7037509 Z" id="形状"></path>
                <path d="M19.0327379,17.5144862 C21.5360378,19.7882236 24.5008961,20.615782 27.7721165,20.382263 C28.9491915,20.3003266 30.1665772,20.0074036 30.9123268,19.0016334 C32.1841321,17.2850641 31.6963716,14.8863736 29.1769474,14.0219438 C26.9598541,13.2619829 24.6782636,12.6802339 22.4430305,11.9735318 C20.6935423,11.4163637 19.2524317,10.4454164 18.7203293,8.52605439 C17.9141136,5.62755141 19.4318147,2.29273668 22.4047352,1.19683626 C26.3612389,-0.259584669 29.9932408,0.377471462 33.3672537,2.83556586 C33.4116145,2.87854164 33.4508509,2.92666816 33.484155,2.9789547 L32.2486293,5.2158206 C30.3540224,3.43575058 28.0442143,2.81098492 25.5268057,2.9625674 C24.1380991,3.04040706 22.6788486,3.28826491 21.9129436,4.6525073 C20.905174,6.44691621 21.1430076,8.70016941 23.6684784,9.48471121 C26.0044885,10.2139459 28.3969337,10.7629203 30.7228661,11.5433653 C34.9554987,12.9772537 35.3243424,17.4468886 33.5264813,20.1466957 C32.4965407,21.6871015 30.9062801,22.4593528 29.1366366,22.7358884 C25.9258825,23.2377494 22.8098586,22.9038582 19.8873266,21.3450167 C19.6656173,21.2262088 19.4600323,21.0766747 19.2504162,20.9353343 C17.5936428,19.8148529 17.5936428,19.8148529 18.6840496,18.1433487 C18.8029664,17.9262171 18.9178522,17.7090854 19.0327379,17.5144862 Z" id="路径"></path>
                <path d="M58.0717193,13.5366458 C58.1180767,12.0962246 58.2269158,10.7278244 57.3279853,9.5096395 C56.6265776,8.55690371 55.6893518,8.14535478 54.5787896,8.03835205 C52.4040227,7.83257758 50.5376333,8.63715575 48.7962073,9.87386031 C48.5140318,9.29974954 48.2358873,8.72769652 47.9254943,8.09391116 C51.037487,6.08143686 54.2522723,5.14927852 57.775435,6.79753201 C59.5894204,7.64120733 60.5387394,9.22567073 60.671765,11.1702395 C60.851148,13.7876907 60.8108372,16.4195461 60.851148,19.0431706 C60.851148,19.5041054 60.851148,19.9156544 61.3671261,20.135833 C61.4981362,20.1893344 61.6029442,20.4630144 61.6110064,20.6399805 C61.6412395,21.2573039 61.6230996,21.8869738 61.6230996,22.4919507 C59.6760886,23.2265656 58.8214999,22.5475098 58.5131224,20.2284316 C57.5758966,20.8745634 56.6487485,21.7264697 55.5664039,22.2182707 C53.0288399,23.3685499 50.0256863,23.2903556 48.1089084,21.0947421 C46.1336798,18.8312229 46.5287255,15.333057 49.318232,13.8411921 C52.0633965,12.3801933 54.8811205,12.5756791 57.7351242,13.4131812 C57.8258235,13.4399318 57.9145072,13.479029 58.0717193,13.5366458 Z M54.1454487,14.3083001 C53.2666735,14.5140746 52.3475876,14.6457702 51.4809057,14.9420855 C50.4348408,15.300133 49.6669203,16.0388634 49.5097082,17.2056046 C49.3233378,18.5240123 49.9864326,19.8157499 51.1543883,20.4095131 C52.2447951,20.9856816 53.3835748,20.9774506 54.5284011,20.7099438 C55.7362483,20.4209366 56.8230735,19.7479816 57.6323317,18.7880103 C58.2793198,18.0472222 58.0515639,17.1912004 58.0959058,16.363987 C58.1377103,16.1599321 58.1335752,15.9488488 58.0838125,15.7466636 C57.9507869,15.4585794 57.7693884,15.0408572 57.5335703,14.9811826 C56.445179,14.7075026 55.3305858,14.534652 54.1454487,14.3083001 Z" id="形状"></path>
                <path d="M40.8892465,6.65159896 L44.3902383,6.65159896 L44.3902383,8.62297075 L40.9154485,8.62297075 L40.9154485,18.3576372 C40.9154485,20.080551 41.993762,20.8870213 43.6585975,20.3941783 C44.1120939,20.2597666 44.5494659,20.0724048 45.0553663,19.8870796 C45.2569202,20.4695304 45.4745985,21.0723465 45.6459193,21.6894185 C45.651272,21.8615627 45.5701299,22.0247716 45.4302566,22.1232017 C43.9589129,22.8359911 40.965837,23.4958304 39.3675143,22.2657596 C38.4504439,21.5590799 38.1843927,20.6365267 38.1722994,19.632512 C38.1319887,16.1215151 38.1561751,12.6105182 38.1561751,9.09952137 C38.1561751,8.99769431 38.1420664,8.89586726 38.1299731,8.70850547 L36.0499365,8.70850547 L36.0499365,6.68418361 L38.1198954,6.68418361 L38.1198954,1.27513043 L40.8892465,1.27513043 L40.8892465,6.65159896 Z" id="路径"></path>
                <path d="M90.5662444,20.0983794 C90.725472,20.8528631 90.8726064,21.5335386 91.0398962,22.3351776 C89.2138175,22.7923783 87.4260342,23.4853551 85.6180954,22.2798214 C84.9217919,21.8401381 84.5009576,21.0632289 84.5075332,20.229594 C84.4833467,13.5704553 84.49544,6.91336687 84.5075332,0.256278428 C84.5177066,0.169301022 84.5359272,0.0834944117 84.5619528,4.14104306e-13 L87.1055634,4.14104306e-13 L87.1055634,18.2941793 C87.1055634,19.0978685 87.2285113,19.9241101 88.0448047,20.2172926 C88.6010936,20.4223154 89.2702526,20.3116031 89.8890232,20.3034022 C90.1221115,20.2632918 90.3495274,20.1944437 90.5662444,20.0983794 Z" id="路径"></path>
            </g>
            <path d="M54.2180081,66.3067826 C51.0596579,65.9514491 47.8912301,65.6768732 44.7449732,65.2246306 C38.4302885,64.3181263 32.5207272,62.1679549 26.9336521,59.1193549 C23.9825249,57.4988408 21.1983267,55.5904351 18.6215679,53.4219052 C14.0379366,49.5853568 10.1570422,44.9778144 7.1531491,39.8061714 C5.51048454,37.0038821 4.01092327,34.1531384 3.2792825,30.9571558 C2.57182819,27.8762528 2.44283367,24.8094823 3.97464357,21.908265 C5.13760976,19.70762 6.97779717,18.4074224 9.46900379,18.0520889 C12.093236,17.6806039 14.2518786,18.7829454 16.2512937,20.18409 C18.0431081,21.4398709 19.6595707,22.9439814 21.3627014,24.3269556 C24.7286521,27.0585819 28.0704163,29.8184734 31.4766778,32.4955883 C33.8711385,34.3772407 36.5296349,35.859143 39.2647218,37.1815489 C42.2973309,38.6842422 45.5317799,39.737688 48.8667512,40.3088875 C50.7613559,40.6330845 52.6809972,40.7878068 54.6029761,40.7712249 C58.8797489,40.7045403 63.1056054,39.8305449 67.0590092,38.195057 C71.714905,36.2770636 75.9273823,33.6282139 79.8496218,30.4988563 C82.1191191,28.68181 84.2999326,26.7597787 86.5331502,24.9023536 C88.8147408,23.0025307 90.927026,20.8907191 93.5411805,19.4148737 C94.9762445,18.6072975 96.5120855,18.0016154 98.1446723,17.9410472 C99.7772592,17.880479 101.341318,18.4760664 102.665527,19.5339912 C104.681066,21.1491435 105.487282,23.3396938 105.725116,25.837123 C106.051633,29.2047155 105.172858,32.3280163 103.830509,35.3261427 C102.164206,39.0456058 100.024779,42.5336405 97.4654356,45.7034962 C95.7476883,47.8484924 93.8842659,49.8722367 91.8884382,51.7603173 C87.7396005,55.6249682 82.9785677,58.7722792 77.7998183,61.0736892 C73.6682779,62.9399448 69.3229793,64.289335 64.8620713,65.0913805 C61.8992285,65.6223618 58.930339,66.0261499 55.9110611,66.0120173 C55.3567892,66.0413418 54.8048371,66.1047211 54.2583189,66.2017977 L54.2180081,66.3067826 Z" id="路径"></path>
        </g>
        <text id="BSC-stablecoin-swaps" font-family="Helvetica" font-size="14" font-weight="normal" fill="#FEFAE2">
            <tspan x="8.57666016" y="126">BSC stablecoin swaps at low fees and with minimum slippage </tspan>
            <tspan x="100.978027" y="143">+ multi-stablecoin savings pools </tspan>
        </text>
        <rect id="矩形-copy" fill="#FB8F2F" x="91.2692308" y="154.617416" width="226" height="43.6410256" rx="21.8205128"></rect>
        <g id="矩形">
            <use fill="url(#linearGradient-10)" fill-rule="evenodd" xlink:href="#path-11"></use>
            <use fill="black" fill-opacity="1" filter="url(#filter-12)" xlink:href="#path-11"></use>
        </g>
        <text id="Swap-or-become-a-LP" font-family="Helvetica-Bold, Helvetica" font-size="12" font-weight="bold" letter-spacing="-0.545454545" fill="#DE4E47">
            <tspan x="105.070135" y="176.601268">Swap or become a LP to get free BNB!</tspan>
            <tspan x="204.5" y="190.601268" font-family="Helvetica" font-size="15" font-weight="normal" letter-spacing="-0.535714286"></tspan>
        </text>
    </g>
</svg>